<svg xmlns="http://www.w3.org/2000/svg" viewBox="0 0 1000 1000" role="img" aria-label="Latitude CRM">
  <rect width="1000" height="1000" rx="180" fill="#262523"/>
  <g transform="translate(77.0 616.3) scale(0.3322)">
    <path d="M384 12Q279 12 203-33.50Q127-79 86-160.50Q45-242 45-349Q45-456 86-538Q127-620 203-666Q279-712 384-712Q511-712 593-648Q675-584 695-468L541-468Q529-524 488.50-554.50Q448-585 382-585Q321-585 277.50-556.50Q234-528 211-475Q188-422 188-349Q188-276 211-223.50Q234-171 277.50-142.50Q321-114 382-114Q448-114 488-142.50Q528-171 541-222L695-222Q675-113 593-50.50Q511 12 384 12 M928 0L788 0L788-700L1053-700Q1138-700 1193.50-671Q1249-642 1276.50-593.50Q1304-545 1304-485Q1304-429 1277.50-380Q1251-331 1195-301.50Q1139-272 1052-272L928-272L928 0M1310 0L1150 0L1007-307L1159-307L1310 0M928-583L928-374L1045-374Q1104-374 1132.50-403Q1161-432 1161-480Q1161-527 1133-555Q1105-583 1044-583 M1542 0L1402 0L1402-700L1570-700L1781-269L1989-700L2156-700L2156 0L2016 0L2016-463L1835-98L1724-98L1542-463" fill="#FAFAF8"/>
    <g transform="translate(2123.7 0) scale(1.5988)"><path d="M150 15Q114 15 89-10Q64-35 64-70Q64-105 89-131Q114-157 150-157Q186-157 211-131Q236-105 236-70Q236-35 211-10Q186 15 150 15" fill="#E07855"/></g>
  </g></svg>
