<svg xmlns="http://www.w3.org/2000/svg" viewBox="0 0 1000 1000" role="img" aria-label="Latitude">
  <g transform="translate(119.0 808.0) scale(0.9549)">
    <path d="M508 0L22 0L22-10L43-18Q64-26 69.50-37.50Q75-49 75-69L75-591Q75-611 69-623Q63-635 43-642L22-650L22-660L277-660L277-650L259-642Q240-635 233-622.50Q226-610 226-590L226-20L380-20Q417-20 434.50-38Q452-56 468-90L507-174L517-174" fill="#FAFAF8"/><path d="M690 15Q654 15 629-10Q604-35 604-70Q604-105 629-131Q654-157 690-157Q726-157 751-131Q776-105 776-70Q776-35 751-10Q726 15 690 15" fill="#E07855"/>
  </g></svg>
