<svg xmlns="http://www.w3.org/2000/svg" viewBox="22.0 -701.0 3842.0 716.0" role="img" aria-label="Latitude">
  <title>Latitude</title>
  <path d="M508 0L22 0L22-10L43-18Q64-26 69.50-37.50Q75-49 75-69L75-591Q75-611 69-623Q63-635 43-642L22-650L22-660L277-660L277-650L259-642Q240-635 233-622.50Q226-610 226-590L226-20L380-20Q417-20 434.50-38Q452-56 468-90L507-174L517-174 M696 15Q638 15 598.50-18Q559-51 559-113Q559-160 607-199.50Q655-239 758-259Q774-262 794-265.50Q814-269 836-273L836-352Q836-420 819.50-447.50Q803-475 768-475Q744-475 730-459.50Q716-444 712-406L710-395Q708-352 689-332Q670-312 642-312Q616-312 599-328Q582-344 582-371Q582-412 610.50-440Q639-468 686-482Q733-496 788-496Q877-496 925.50-452.50Q974-409 974-311L974-90Q974-45 1016-45L1038-45L1047-37Q1028-13 1005.50 0Q983 13 942 13Q898 13 872.50-7.50Q847-28 839-62Q809-30 777.50-7.50Q746 15 696 15M757-46Q777-46 794.50-55.50Q812-65 836-85L836-253Q826-251 816-249Q806-247 793-245Q747-233 719.50-204.50Q692-176 692-128Q692-87 711-66.50Q730-46 757-46 M1248 15Q1184 15 1148.50-17Q1113-49 1113-119L1113-461L1044-461L1044-471L1068-475Q1099-482 1121.50-495Q1144-508 1166-530L1248-621L1258-621L1255-481L1367-481L1367-461L1254-461L1254-101Q1254-66 1269.50-48Q1285-30 1309-30Q1330-30 1346-40.50Q1362-51 1378-69L1388-59Q1368-25 1333-5Q1298 15 1248 15 M1529-548Q1495-548 1471.50-569.50Q1448-591 1448-624Q1448-658 1471.50-679Q1495-700 1529-700Q1563-700 1586-679Q1609-658 1609-624Q1609-591 1586-569.50Q1563-548 1529-548M1645 0L1411 0L1411-10L1425-14Q1445-20 1452.50-32Q1460-44 1460-64L1460-377Q1460-398 1452.50-408.50Q1445-419 1425-423L1411-426L1411-436L1594-495L1604-485L1601-343L1601-63Q1601-43 1608.50-31Q1616-19 1635-13L1645-10 M1869 15Q1805 15 1769.50-17Q1734-49 1734-119L1734-461L1665-461L1665-471L1689-475Q1720-482 1742.50-495Q1765-508 1787-530L1869-621L1879-621L1876-481L1988-481L1988-461L1875-461L1875-101Q1875-66 1890.50-48Q1906-30 1930-30Q1951-30 1967-40.50Q1983-51 1999-69L2009-59Q1989-25 1954-5Q1919 15 1869 15 M2211 15Q2172 15 2139.50 0Q2107-15 2088.50-48.50Q2070-82 2071-137L2074-394Q2074-417 2066-427Q2058-437 2041-441L2029-445L2029-455L2208-490L2218-480L2213-338L2213-97Q2213-65 2231.50-50Q2250-35 2278-35Q2306-35 2328-43Q2350-51 2372-67L2376-393Q2376-416 2369-425.50Q2362-435 2343-439L2333-442L2333-452L2508-490L2518-480L2515-338L2515-67Q2515-45 2521-33Q2527-21 2547-13L2557-10L2557 0L2382 10L2373-49Q2340-22 2301.50-3.50Q2263 15 2211 15 M2799 15Q2740 15 2693-11.50Q2646-38 2618.50-93.50Q2591-149 2591-236Q2591-324 2622-381.50Q2653-439 2704-467.50Q2755-496 2815-496Q2850-496 2882-489Q2914-482 2939-468L2939-598Q2939-619 2932.50-629Q2926-639 2905-643L2886-647L2886-657L3068-701L3079-692L3075-552L3075-63Q3075-43 3082-30.50Q3089-18 3108-13L3117-10L3117 0L2946 11L2937-25Q2910-7 2875.50 4Q2841 15 2799 15M2857-22Q2899-22 2934-47L2934-444Q2897-468 2858-468Q2810-468 2776-412.50Q2742-357 2742-238Q2742-119 2774-70.50Q2806-22 2857-22 M3402-496Q3467-496 3513-469.50Q3559-443 3583.50-397.50Q3608-352 3608-294Q3608-283 3607-271.50Q3606-260 3603-251L3305-251Q3306-143 3343.50-95.50Q3381-48 3455-48Q3505-48 3536-64Q3567-80 3594-111L3604-102Q3573-47 3521.50-16Q3470 15 3398 15Q3327 15 3272-15.50Q3217-46 3186-103Q3155-160 3155-239Q3155-321 3191-378.50Q3227-436 3283.50-466Q3340-496 3402-496M3399-476Q3370-476 3349.50-458.50Q3329-441 3317.50-396.50Q3306-352 3305-271L3476-271Q3486-380 3468-428Q3450-476 3399-476" fill="#262523"/>
  <path d="M3778 15Q3742 15 3717-10Q3692-35 3692-70Q3692-105 3717-131Q3742-157 3778-157Q3814-157 3839-131Q3864-105 3864-70Q3864-35 3839-10Q3814 15 3778 15" fill="#262523"/>
</svg>
